<svg xmlns="http://www.w3.org/2000/svg" width="600" height="359.691" viewBox="0 0 600 359.691"><path d="M425.14 193.324h-77.705c-3.54 21.45-47.946 23.718-105.473 23.718-53.928 0-81.362-14.391-84.589-16.19 2.034.997 4.107 1.681 5.964 2.268 15.233 4.732 27.551 5.592 27.551 5.592 24.07 1.702 34.434 1.897 34.434 1.897 28.607.528 46.186-.215 52.287-.508 0 0 11.302-.528 34.003-4.028 9.816-1.525 17.188-2.972 23.074-8.956 3.93-3.989 5.768-8.525 6.687-11.615 15.096-.547 30.21-1.114 45.306-1.662 12.26.313 26.28.665 31.403.665 9.542 0 5.338-14.235 5.084-15.115.41.41 6.942 7.274 12.319 14.607 5.553 7.567-10.344 9.327-10.344 9.327z" fill="#dfcace"/><path d="M423.146 169.351l.02.02v.02" fill="none"/><path d="M157.06 200.676s.098.059.313.176" fill="none" stroke="#f0a04b" stroke-width="1.955" stroke-miterlimit="10"/><path d="M370.9 120.604l2.267 5.103V72.912l-4.536-6.237V97.51l1.33 3.97.938 19.123zM597.27 260.01c-4.1 0-9.137 2.562-11.271 8.71h-.342l-.513-7.686h-11.098c.255 3.588.341 7.6.341 13.748v28.005h12.977v-21.175c0-1.024.086-2.048.255-2.903.855-4.013 4.1-6.575 8.881-6.575 1.452 0 2.476.17 3.5.342v-12.21c-.938-.171-1.535-.256-2.73-.256zm-55.667.085c-14.515 0-21.09 11.698-21.09 22.286 0 13.063 8.113 21.26 22.286 21.26 5.637 0 10.843-.854 15.114-2.647l-1.71-8.795c-3.499 1.197-7.085 1.793-11.525 1.793-6.061 0-11.443-2.561-11.784-7.94h26.895c.172-.94.428-2.903.428-5.123 0-10.33-5.123-20.834-18.614-20.834zm-8.792 17.078c.341-3.417 2.559-8.454 8.023-8.454 5.978 0 7.343 5.294 7.343 8.454h-15.366zM392.28 61.497l-5.298-3.154v6.812l3.406 1.514 1.892-5.172zm100.747 241.29h12.977v-60.622h-12.977v60.622zm-63.346-25.53c-5.123-1.792-6.746-2.817-6.746-4.866 0-2.05 1.792-3.33 4.954-3.33 3.5 0 7.17 1.366 9.05 2.39l2.22-8.965c-2.562-1.28-6.833-2.476-11.698-2.476-10.332 0-16.993 5.89-16.993 13.746-.083 4.953 3.247 9.649 11.956 12.551 4.782 1.624 6.061 2.648 6.061 4.868 0 2.135-1.623 3.415-5.55 3.415-3.841 0-8.795-1.622-11.185-3.073l-2.306 9.22c3.161 1.709 8.026 2.99 13.49 2.99 11.954 0 18.018-5.722 18.018-13.577-.086-6.061-3.33-10.16-11.27-12.893zm-81.611-32.018h-16.053l-12.977 19.126c-1.368 2.05-2.734 4.097-4.013 6.318h-.172v-25.444h-12.891v57.548h12.891v-18.784l4.868-6.063 14.173 24.847h15.112l-19.98-33.044 19.042-24.504zm47.037 32.872c0-9.904-4.354-18.1-18.272-18.1-7.599 0-13.319 2.134-16.222 3.756l2.39 8.367c2.734-1.707 7.26-3.158 11.529-3.158 6.402 0 7.598 3.158 7.598 5.464v.513c-14.773 0-24.506 5.123-24.506 15.966 0 6.66 5.038 12.808 13.491 12.808 4.954 0 9.222-1.793 11.953-5.124h.258l.77 4.184h11.694c-.51-2.305-.683-6.147-.683-10.076v-14.6zm-12.55 9.477c0 .77-.085 1.538-.258 2.22-.852 2.648-3.585 4.782-6.743 4.782-2.903 0-5.124-1.622-5.124-4.952 0-4.953 5.296-6.575 12.126-6.575v4.525zm87.25-37.824l-12.723 3.501v7.77h-5.55v9.563h5.55v17.076c0 5.892 1.193 9.905 3.586 12.38 2.134 2.135 5.634 3.587 9.819 3.587 3.585 0 6.744-.512 8.367-1.11l-.086-9.82c-1.193.257-2.048.342-3.84.342-3.845 0-5.124-2.305-5.124-7.342v-15.113h9.305v-9.564h-9.305v-11.27zm-135.122-52.647c3.93-3.989 5.768-8.525 6.687-11.615 15.096-.547 30.21-1.114 45.306-1.662l33.3-1.232-83.65-1.134s1.544 3.07.606 6.863c-2.132 8.721-16.895 11.733-24.443 13.316-2.327.49-5.866.88-12.866 1.643-11.224 1.212-17.07 1.858-24.09 2.366-13.277.978-23.425.958-33.182.919-17.95-.078-26.906-.117-37.211-1.212-22.154-2.327-54.085-9.62-54.125-17.775-.019-2.698 4.732-5.436 14.255-10.91a120.75 120.75 0 0 1 19.24-8.976c-22.447 3.168-37.718 11.263-37.855 18.928-.059 3.579 3.168 7.88 3.598 8.447 1.975 2.62 4.36 4.36 6.805 5.593 0 0 .097.058.312.176 2.034.997 4.107 1.681 5.964 2.268 15.233 4.732 27.551 5.592 27.551 5.592 24.07 1.702 34.434 1.897 34.434 1.897 28.607.528 46.186-.215 52.287-.508 0 0 11.302-.528 34.003-4.028 9.816-1.525 17.188-2.972 23.074-8.956zm-140.63-21.704h69.982l1.897-2.406 36.976-.117.059-1.78 2.835-43.271h23.269s17.031 7.9 20.629 8.466c3.598.567 38.423-3.402 38.423 2.366 0 5.769 2.64 36.996 2.64 36.996s.567-44.094 2.463-41.826c1.897 2.269 18.733 34.826 21.196 37.368 2.464 2.561 1.135 5.396-1.896 4.458-3.031-.939-17.599 1.505-17.599 1.505s22.663 0 25.049-.743c1.368-.43 3.09-3.539 3.167-7.078.06-2.562-.743-5.358-3.167-7.509l-1.389-86.837h-32.42v-6.258l-8.838-12.299h-24.97s-4.165 8.135-10.793 8.135v10.226s-41.63-.391-46.93-2.464c-5.298-2.072-13.804 1.135-16.268 2.073-2.463.958-65.66.763-65.66.763s-14.646-3.207-23.348-1.565c-8.701 1.623-16.894 3.266-16.894 3.266v88.304h21.587v10.227zM386.17 79.15h14.06l-14.06 3.422V79.15zm27.747 5.436l1.76 77.198s5.553 7.195 4.048 8.584c-1.526 1.388-2.269.88-3.54-2.014-1.251-2.914-15.506-40.515-26.358-40.515 0 0-3.03-8.057-2.913-14.372.137-6.297-.744-28.001-.744-28.001l27.747-.88zm-152.01 58.035l-1.134-61.183s20.062-1.643 23.973-4.556c3.91-2.894 9.073 1.897 18.654 2.268 9.6.391 37.23.391 37.23.391s-1.642 34.806 4.028 46.42l1.388-56.9c3.54-.509 9.973-7.568 9.973-7.568h19.554l6.042 8.701 1.27 41.513 3.285 15.017s-5.807.254-7.958 3.03c-2.15 2.758-23.464 2.269-26.358 2.132-2.914-.117-20.942-9.327-20.942-9.327l-31.169-.39-.175 49.04H198.065v-8.976h22.682l10.304-4.458h-36.995c0-7.176 9.288-15.604 18.459-15.604 9.17 0 21.196 13.727 21.196 13.727 0-2.562-2.092-7.958-2.092-7.958h23.19l-15.33 19.123 20.825-19.084h26.202l6.941-5.358h-31.54zm-6.061-61.828l1.016 62.571-27.003 2.268s-5.553-9.835-27.238-5.533h-2.718l-1.838-63.843s11.36 6.57 57.78 4.537zm-65.603 79.23h-13.629V80.539l17.677-4.282s-2.269 59.287 3.774 65.348c0 0-7.822 3.794-7.822 18.42z" fill="#940a2e"/><path d="M17.504 245.239L0 302.787h13.405l4.099-14.771H33.98l4.44 14.771h14.091L34.58 245.24H17.504zm1.879 33.044l3.413-12.21c.941-3.33 1.793-7.685 2.648-11.101h.169c.855 3.416 1.879 7.685 2.906 11.101l3.585 12.21H19.383zm46.185 24.504h12.978v-60.622H65.568v60.622zm36.623-57.377c-3.672 3.415-5.21 8.965-5.21 14.002v1.622h-5.547v9.564h5.547v32.19h12.98v-32.19h8.282v-9.564h-8.368V258.9c0-4.099 1.793-7.428 6.061-7.428 1.71 0 3.076.256 4.186.597l.513-9.99c-1.796-.426-4.013-.853-6.833-.853-3.84 0-8.281 1.11-11.611 4.184zm40.382 23.31h-.34l-.514-7.686H130.62c.256 3.588.342 7.6.342 13.748v28.005h12.977v-21.175c0-1.024.086-2.048.255-2.903.855-4.013 4.1-6.575 8.881-6.575 1.452 0 2.476.17 3.5.342v-12.21c-.938-.171-1.535-.256-2.731-.256-4.1 0-9.136 2.562-11.27 8.71zm45.248-8.625c-14.514 0-21.089 11.698-21.089 22.286 0 13.063 8.112 21.26 22.286 21.26 5.636 0 10.842-.854 15.114-2.647l-1.71-8.795c-3.5 1.197-7.085 1.793-11.526 1.793-6.06 0-11.442-2.561-11.783-7.94h26.895c.172-.94.427-2.903.427-5.123 0-10.33-5.123-20.834-18.614-20.834zm-8.792 17.078c.342-3.417 2.559-8.454 8.024-8.454 5.978 0 7.343 5.294 7.343 8.454h-15.367zm57.026 26.554c5.382 0 10.502-2.391 13.063-7.002h.259l.51 6.062h11.529c-.172-2.818-.342-7.77-.342-12.466v-48.156h-12.98v22.541h-.169c-1.879-2.817-5.806-4.696-11.015-4.696-9.991 0-18.786 8.197-18.7 22.284 0 12.98 7.94 21.433 17.845 21.433zM240.327 270c4.013 0 6.83 2.903 7.598 6.318.17.769.17 1.708.17 2.39v5.465c0 1.026-.087 2.05-.256 2.99-.769 3.671-3.844 6.233-7.599 6.233-5.378 0-8.88-4.44-8.88-11.528 0-6.574 2.988-11.868 8.967-11.868zm-62.18 58.327c2.212 0 3.94.483 5.148 1.005l1.285-4.825c-1.086-.604-3.497-1.206-6.676-1.206-8.2 0-14.796 5.107-14.796 14.354 0 7.72 4.826 13.592 14.194 13.592 3.256 0 5.83-.643 6.916-1.167l-.885-4.825c-1.246.523-3.256.885-5.147.885-5.429 0-8.643-3.418-8.643-8.846 0-6.032 3.778-8.967 8.605-8.967zm17.24 2.372c-6.836 0-9.931 5.51-9.931 10.496 0 6.151 3.82 10.012 10.495 10.012 2.654 0 5.106-.403 7.118-1.247l-.804-4.142c-1.65.564-3.34.844-5.43.844-2.855 0-5.386-1.205-5.55-3.738h12.669c.08-.443.199-1.369.199-2.413 0-4.865-2.41-9.812-8.766-9.812zm-4.14 8.042c.16-1.608 1.205-3.98 3.778-3.98 2.814 0 3.458 2.492 3.458 3.98h-7.236zm21.303-3.98h-.16l-.244-3.62h-5.227c.122 1.69.16 3.58.16 6.474v13.19h6.112v-9.972c0-.483.041-.965.122-1.367.403-1.891 1.929-3.098 4.182-3.098.683 0 1.166.082 1.647.162v-5.75a6.086 6.086 0 0 0-1.285-.121c-1.93 0-4.304 1.207-5.307 4.102zm22.03-1.247h-.08c-1.006-1.648-2.695-2.815-5.39-2.815-4.865 0-8.926 4.022-8.926 10.374 0 5.63 3.458 9.571 8.323 9.571 2.253 0 4.144-.926 5.307-2.533h.083v1.246c0 3.659-2.214 5.187-5.108 5.187-2.333 0-4.464-.764-5.71-1.488l-1.206 4.664c1.769.965 4.464 1.489 7.076 1.489 2.897 0 5.833-.564 7.964-2.413 2.25-1.971 3.016-5.067 3.016-8.847v-10.937c0-2.935.08-4.584.16-5.87h-5.307l-.202 2.372zm-.766 8.525c0 .523-.038 1.165-.199 1.648-.403 1.408-1.65 2.453-3.259 2.453-2.532 0-3.98-2.292-3.98-5.227 0-3.578 1.769-5.59 4.022-5.59 1.689 0 2.855 1.085 3.297 2.694.08.362.12.765.12 1.127v2.895zm19.775-1.246a242.071 242.071 0 0 0-.843 3.698h-.16a88.08 88.08 0 0 0-.965-3.658l-2.936-9.692h-6.797l7.24 18.015c.198.482.24.764.24 1.006 0 .24-.122.562-.32.884-.565.965-1.61 1.97-2.536 2.452-.923.522-1.89.885-2.653 1.046l1.327 5.147c1.528-.161 3.781-.844 5.87-2.695 2.212-1.97 4.103-5.065 6.917-12.907l4.583-12.948h-6.513l-2.454 9.652zm9.281 1.487h10.538v-4.06H262.87v4.06zm30.235-16.608c-1.808-1.447-4.503-2.171-8.282-2.171-3.74 0-6.393.242-8.284.564v26.74h6.073v-9.732c.561.122 1.285.162 2.09.162 3.618 0 6.714-.925 8.806-2.856 1.648-1.487 2.494-3.78 2.494-6.433s-1.128-4.905-2.897-6.274zm-8.442 10.858c-.926 0-1.529-.04-2.05-.162v-8c.441-.122 1.284-.202 2.492-.202 3.096 0 4.824 1.488 4.824 3.982 0 2.733-2.01 4.382-5.266 4.382zm22.749-5.871c-6.352 0-10.535 4.062-10.535 10.454 0 6.354 4.423 10.134 10.173 10.134 5.268 0 10.377-3.298 10.377-10.495 0-5.95-4.022-10.093-10.015-10.093zm-.2 16.205c-2.614 0-4.021-2.533-4.021-5.911 0-2.896 1.125-5.911 4.022-5.911 2.772 0 3.9 2.975 3.9 5.87 0 3.579-1.49 5.952-3.9 5.952zm24.88-16.165c-3.294 0-5.265 1.89-6.07 3.178h-.121l-.282-2.736h-5.307c.08 1.77.16 3.82.16 6.274v13.39h6.112v-11.34c0-.563.041-1.126.201-1.528.443-1.126 1.449-2.291 3.138-2.291 2.211 0 3.096 1.729 3.096 4.262v10.896h6.111v-11.62c0-5.791-3.015-8.485-7.037-8.485zm17.804-4.865l-5.99 1.649v3.658h-2.615v4.505h2.615v8.04c0 2.776.561 4.665 1.69 5.832 1.002 1.004 2.653 1.689 4.624 1.689 1.689 0 3.176-.242 3.939-.523l-.04-4.624c-.563.12-.964.16-1.81.16-1.807 0-2.413-1.085-2.413-3.458v-7.116h4.384v-4.505h-4.384v-5.307zm16.403 4.825c-6.352 0-10.535 4.062-10.535 10.454 0 6.354 4.423 10.134 10.172 10.134 5.27 0 10.374-3.298 10.374-10.495 0-5.95-4.019-10.093-10.011-10.093zm-.2 16.205c-2.614 0-4.021-2.533-4.021-5.911 0-2.896 1.125-5.911 4.022-5.911 2.772 0 3.9 2.975 3.9 5.87 0 3.579-1.49 5.952-3.9 5.952zm13.257 3.94h6.111v-19.663h-6.111v19.663zm3.096-28.187c-1.968 0-3.256 1.326-3.256 3.055 0 1.69 1.246 3.058 3.176 3.058 2.05 0 3.297-1.369 3.297-3.058-.038-1.729-1.246-3.055-3.217-3.055zm15.6 16.165c-2.412-.845-3.178-1.327-3.178-2.292 0-.966.846-1.569 2.333-1.569 1.65 0 3.378.643 4.262 1.127l1.045-4.223c-1.205-.604-3.215-1.166-5.509-1.166-4.865 0-8 2.774-8 6.474-.04 2.333 1.526 4.544 5.628 5.91 2.253.765 2.856 1.248 2.856 2.292 0 1.007-.763 1.61-2.615 1.61-1.808 0-4.14-.765-5.266-1.448l-1.086 4.343c1.487.804 3.778 1.407 6.352 1.407 5.63 0 8.486-2.694 8.486-6.394-.042-2.855-1.567-4.785-5.307-6.071zm17.122-8.083c-6.836 0-9.932 5.51-9.932 10.496 0 6.151 3.82 10.012 10.496 10.012 2.653 0 5.105-.403 7.117-1.247l-.804-4.142c-1.65.564-3.34.844-5.429.844-2.855 0-5.387-1.205-5.55-3.738h12.668c.08-.443.199-1.369.199-2.413 0-4.865-2.41-9.812-8.765-9.812zm-4.141 8.042c.16-1.608 1.205-3.98 3.779-3.98 2.813 0 3.458 2.492 3.458 3.98h-7.237zM141.046 155.898h-6.061V61.122h6.061v-10.93h-14.88v116.636h14.88v-10.93zm309.397-45.775v10.93h6.062v92.235h-6.062v10.93h14.88V110.123h-14.88zm-190.73-81.186h-11.001V6.527h-6.24v27.664h17.24v-5.254zm17.814-22.41l-2.79 6.649c-.822 1.97-1.478 3.57-2.095 5.295h-.08c-.656-1.806-1.274-3.284-2.135-5.295l-2.793-6.649h-7.183l8.745 16.336V34.19h6.239V22.658l9.112-16.13h-7.02zm24.385 28.115c3.324 0 5.95-.656 7.061-1.19l-.902-4.926c-1.274.535-3.328.904-5.254.904-5.542 0-8.828-3.49-8.828-9.03 0-6.157 3.859-9.153 8.786-9.153 2.256 0 4.022.492 5.254 1.027l1.312-4.926c-1.107-.616-3.57-1.232-6.812-1.232-8.373 0-15.105 5.212-15.105 14.653 0 7.88 4.924 13.873 14.488 13.873zM331.92 0h-6.568l-3.446 5.049h5.007L331.92 0zm1.93 29.06h-11.372v-6.567h10.182v-5.089h-10.182v-5.746h10.796v-5.13h-17.035V34.19h17.61v-5.13zm24.998 0h-11.371v-6.567h10.181v-5.089h-10.181v-5.746h10.795v-5.13h-17.034V34.19h17.61v-5.13z" fill="#f0a04b"/></svg>